<?xml version="1.0" encoding="UTF-8" standalone="no"?>
<!-- Created with Inkscape (http://www.inkscape.org/) -->

<svg
   width="210mm"
   height="297mm"
   viewBox="0 0 210 297"
   version="1.1"
   id="svg5"
   inkscape:version="1.1 (c68e22c387, 2021-05-23)"
   sodipodi:docname="jekkytiga.svg"
   xmlns:inkscape="http://www.inkscape.org/namespaces/inkscape"
   xmlns:sodipodi="http://sodipodi.sourceforge.net/DTD/sodipodi-0.dtd"
   xmlns="http://www.w3.org/2000/svg"
   xmlns:svg="http://www.w3.org/2000/svg">
  <sodipodi:namedview
     id="namedview7"
     pagecolor="#ffffff"
     bordercolor="#666666"
     borderopacity="1.0"
     inkscape:pageshadow="2"
     inkscape:pageopacity="0.0"
     inkscape:pagecheckerboard="0"
     inkscape:document-units="mm"
     showgrid="false"
     inkscape:zoom="0.43852551"
     inkscape:cx="-345.47591"
     inkscape:cy="518.78396"
     inkscape:window-width="1920"
     inkscape:window-height="991"
     inkscape:window-x="-9"
     inkscape:window-y="-9"
     inkscape:window-maximized="1"
     inkscape:current-layer="layer1" />
  <defs
     id="defs2" />
  <g
     inkscape:label="Layer 1"
     inkscape:groupmode="layer"
     id="layer1">
    <path
       style="fill:#c87137;stroke:#000000;stroke-width:0.447672px;stroke-linecap:butt;stroke-linejoin:miter;stroke-opacity:1"
       d="m 40.72733,106.29692 7.792955,8.56453 3.117185,10.57976 1.558591,3.52654 -10.130845,-2.51897 -6.234372,-0.50379 2.337895,5.03798 8.572253,0.50379 9.351553,5.03797 7.792961,7.05313 12.468739,6.54938 13.248036,0.50378 12.468719,-3.52657 7.79297,-6.04555 4.49303,-11.93565 2.52063,-12.75038 v -6.54935 l 5.45507,-3.02281 6.23434,0.50381 3.89649,6.04554 3.89649,10.07596 7.01365,9.57212 10.13087,8.56453 14.80662,2.01519 8.43789,-1.12573 8.33175,-3.47705 6.34994,-7.73764 6.11878,-15.48135 1.73241,-16.454456 2.65028,-4.578967 -1.31386,-4.429093 v 0 0 0 l -4.97404,-4.571521 -19.54019,-3.103555 -17.15391,0.5785 -8.8296,1.947556 -9.8641,4.527092 -6.84034,5.890073 -3.29053,4.689641 -1.5586,2.51899 -12.46872,1.5114 -7.79295,-7.556958 -14.267825,-6.27574 -11.448944,-0.777406 -26.496056,3.022782 -14.027329,4.030364 -5.455076,3.022781 z"
       id="path888"
       sodipodi:nodetypes="cccccccccccccccccccccccccccccccccccccccccccccccccc" />
    <path
       style="fill:#2b1100;stroke:#000000;stroke-width:0.447672px;stroke-linecap:butt;stroke-linejoin:miter;stroke-opacity:1"
       d="m 45.180943,101.15269 5.531637,-2.332221 14.911377,-3.109628 8.658221,-1.399336 7.936704,-0.466448 6.253157,0.31097 7.215169,1.243855 6.974682,2.643181 5.05064,3.576077 4.3291,4.97539"
       id="path2500"
       sodipodi:nodetypes="cccccccccc" />
    <path
       style="fill:none;stroke:#000000;stroke-width:0.447672px;stroke-linecap:butt;stroke-linejoin:miter;stroke-opacity:1"
       d="m 114.20619,112.65831 -2.16456,-6.06378 z"
       id="path2504" />
    <path
       style="fill:#2b1100;stroke:#000000;stroke-width:0.447672px;stroke-linecap:butt;stroke-linejoin:miter;stroke-opacity:1"
       d="m 45.180943,101.15269 1.924051,4.81993 2.645563,4.04253 3.848099,8.86244 5.772144,11.81659 8.89873,10.26178 7.936687,5.44187 8.658221,1.39933 7.936699,-1.71031 5.050649,-1.55482 6.493664,-5.7528 5.77216,-6.8412 3.12656,-10.8837 0.96202,-8.39602 -2.16456,-6.06378 -4.3291,-4.97539"
       id="path2611"
       sodipodi:nodetypes="cccccccccccccccc" />
    <a
       id="a2980"
       transform="matrix(2.1043613,0,0,1.3604201,-100.32523,7.5528216)">
      <path
         style="fill:none;stroke:#000000;stroke-width:0.264583px;stroke-linecap:butt;stroke-linejoin:miter;stroke-opacity:1"
         d="m 77.097288,30.871242 -5.818663,6.141921 -1.939555,4.687257 -1.939554,7.111699 -2.262812,7.919849 -2.262815,8.566364 -1.777926,7.596587 1.131409,7.111701 -0.64652,8.081476 0.64652,7.596589 -3.232592,-1.616294 -3.232589,3.555849 0.808146,8.24311 0.808149,3.39422 2.101183,4.84888 1.131406,2.42444 2.424443,6.78845 1.777926,2.58607 2.101183,1.45466 2.747703,0.32326 0.969777,-0.96977 0.969778,1.77792 1.616294,5.17215 1.616295,2.90933 1.616297,5.17214 1.131406,4.04074 3.232592,4.20237 5.172144,4.52563 4.525626,2.90933 5.980295,2.58607 7.273326,1.93956 4.04074,-0.48489"
         id="path2978" />
    </a>
    <path
       style="fill:none;stroke:#000000;stroke-width:0.447672px;stroke-linecap:butt;stroke-linejoin:miter;stroke-opacity:1"
       d="M 118.03627,227.87665 Z"
       id="path3018" />
    <path
       style="fill:#ff5555;stroke:#000000;stroke-width:0.447672px;stroke-linecap:butt;stroke-linejoin:miter;stroke-opacity:1"
       d="m 102.39043,186.09869 6.80254,-6.5965 5.1019,-5.27724 5.44204,-3.29826 6.80252,-2.41874 2.72103,0.43976 5.44205,-1.75906 5.78214,0.87954 5.1019,2.6386 8.16305,4.61758 2.04076,2.63861 v 3.29825 l -4.42165,3.29829 -5.44203,5.27719 -7.48281,2.8585 -10.20378,0.43978 -6.80254,0.21987 -7.82292,-1.97896 -7.82294,-1.75908 z"
       id="path3154" />
    <path
       style="fill:#501616;stroke:#000000;stroke-width:0.447672px;stroke-linecap:butt;stroke-linejoin:miter;stroke-opacity:1"
       d="m 113.27449,182.36065 6.12229,-2.85846 7.82291,-1.31934 8.8433,-0.65965 6.12231,0.65965 -4.08155,1.7591 -7.14267,1.31928 -7.82293,0.87955 z"
       id="path3156" />
    <path
       style="fill:none;stroke:#000000;stroke-width:0.447672px;stroke-linecap:butt;stroke-linejoin:miter;stroke-opacity:1"
       d="m 110.86397,141.0589 -7.79297,6.04555 z"
       id="path3158" />
    <path
       style="fill:#deaa87;stroke:#000000;stroke-width:0.447672px;stroke-linecap:butt;stroke-linejoin:miter;stroke-opacity:1"
       d="m 109.53311,148.49851 1.02037,4.61757 3.40126,1.75907 1.36053,-1.53919 v -3.29825 l 7.14265,-1.75908 2.04075,1.09943 -1.02036,2.41872 v 1.09941 l 5.78215,1.53919 c 0,0 2.75557,-6.64913 6.78663,-6.48865 3.74835,0.14916 5.11782,6.48865 5.11782,6.48865 l 3.40126,-3.73802 -1.02037,-4.83744 -1.70066,-5.27724 2.52853,-7.58454 -7.01365,-9.57212 -7.79298,-16.1215 -6.23434,-0.50381 -5.45507,3.02281 v 6.54935 l -2.52063,12.75038 -4.49303,11.93565 z"
       id="path3160"
       sodipodi:nodetypes="ccccccccccsccccccccccccc" />
    <path
       style="fill:#c87137"
       id="path3635"
       sodipodi:type="arc"
       sodipodi:cx="-39.782627"
       sodipodi:cy="129.36861"
       sodipodi:rx="0.68025398"
       sodipodi:ry="0.43976822"
       sodipodi:start="0"
       sodipodi:end="1.4582949"
       sodipodi:arc-type="slice"
       d="m -39.102373,129.36861 a 0.68025398,0.43976822 0 0 1 -0.603886,0.43698 l -0.07637,-0.43698 z" />
    <path
       style="fill:#deaa87;stroke:#000000;stroke-width:0.447672px;stroke-linecap:butt;stroke-linejoin:miter;stroke-opacity:1"
       d="m 61.91532,49.550679 14.28534,-7.256174 11.904451,-2.198843 14.625429,-1.319303 14.96559,1.978956 18.02677,3.738029 15.98596,9.455016 10.20379,11.87374 7.14265,10.774318 8.04882,6.02208 -17.15391,0.5785 -8.8296,1.947556 -9.8641,4.527092 -6.84034,5.890073 -4.84913,7.208631 v 0 l -12.46872,1.5114 v 0 l -7.79295,-7.556958 -4.8742,-3.197302 -9.393625,-3.078438 -11.448944,-0.777406 -26.496056,3.022782 -14.027329,4.030364 -5.455076,3.022781"
       id="path3804"
       sodipodi:nodetypes="ccccccccccccccccccccccccc" />
    <path
       style="fill:#2b1100;stroke:#000000;stroke-width:0.447672px;stroke-linecap:butt;stroke-linejoin:miter;stroke-opacity:1"
       d="m 30.623647,137.72418 -6.802543,-2.19882 -6.802535,4.83744 -0.680255,-10.11467 -1.360507,-7.03629 -0.340131,-7.03627 2.040765,-10.99422 1.360512,-9.455013 -4.081526,-5.936872 -6.4624145,-5.716987 1.7006347,-7.256173 5.1019078,-2.858496 4.081521,-5.057331 3.401268,-6.596524 3.06114,-7.256176 3.061146,-8.355591 4.421648,-7.03629 2.040762,-8.355597 6.122285,-5.936868 10.884064,-9.015248 8.843298,-8.3555941 15.645851,-4.3976808 11.224175,3.0783754 4.081516,2.8584939 5.442053,-2.6386103 6.462408,-3.5181451 8.16305,-0.2198836 11.56432,2.1988405 11.5643,5.7169871 13.94521,9.23513 15.98597,12.533392 7.82291,7.915826 1.70063,3.738029 1.3605,5.057335 -1.70062,1.759075 3.06113,1.978952 -1.70062,1.539191 h -5.78217 l 5.10193,5.497101 2.04074,5.936867 1.02039,7.695944 -0.1143,8.660689 -8.0488,-6.02208 v 0 L 161.91258,65.8221 c 0,0 -5.86309,-8.320504 -10.2038,-11.87374 -4.47619,-3.664178 -9.73881,-7.112059 -15.98596,-9.455016 -5.45843,-2.047146 -18.02675,-3.738029 -18.02675,-3.738029 l -14.96557,-1.978956 -14.625472,1.319303 -11.904434,2.198843 -14.285342,7.256174 -12.244559,8.355594 -4.081522,6.376636 -17.346474,42.437641 2.380892,9.6749 v 21.32873"
       id="path4421"
       sodipodi:nodetypes="cccccccccccccccccccccccccccccccccccccccccccccsscccccccccc" />
    <path
       style="fill:#deaa87;stroke:#000000;stroke-width:0.447672px;stroke-linecap:butt;stroke-linejoin:miter;stroke-opacity:1"
       d="m 59.874562,199.73148 5.442029,15.39189 4.08152,9.67491 2.040768,15.172 -0.680245,12.3135 -2.040768,11.21409 -5.101901,9.45504 -6.802546,5.71699 -0.340123,11.21406 0.340123,15.17201 0.680258,6.15676 1.700629,7.25616 5.101904,6.37664 15.985973,16.93108 10.884046,12.75328 55.440691,52.11251 4.42166,3.29826 3.40127,-5.71698 6.46241,-10.99418 8.16304,-12.09364 5.44203,-8.57546 4.42167,-8.35561 2.3809,-8.57548 1.02038,-10.77432 -2.72103,-9.67488 -3.06116,-10.55447 -0.34012,-11.43396 1.3605,-8.3556 -1.3605,-9.89478 -2.72101,-12.31351 -5.44203,-12.75327 -4.42165,-7.25619 -3.06117,-11.87371 -1.02038,-12.09364 -0.34007,-9.67491 1.7006,-12.53338 -5.44201,3.07835 -12.5847,5.49712 -16.32612,2.19884 -8.50316,0.65965 -15.30573,-2.63859 -12.584696,-3.51816 -9.523545,-3.95792 -10.884048,-6.15673 z"
       id="path4555" />
    <path
       style="fill:#c8b7b7;stroke:#000000;stroke-width:0.447672px;stroke-linecap:butt;stroke-linejoin:miter;stroke-opacity:1"
       d="m 59.194306,318.46889 14.965584,93.45074 113.26227,-0.21987 -6.12226,-56.07045 -2.3809,8.57548 -27.89042,45.73587 -59.862351,-55.41077 z"
       id="path4557" />
    <path
       style="fill:#aa4400;stroke:#000000;stroke-width:0.447672px;stroke-linecap:butt;stroke-linejoin:miter;stroke-opacity:1"
       d="m -94.54307,411.25996 1.360508,-14.73224 2.040761,-13.41291 4.761777,-19.34979 4.761778,-11.87376 8.163044,-5.4971 18.366858,-12.31351 13.605078,-6.59653 12.924821,-6.81639 7.822921,-5.05731 12.2445717,-8.13574 17.3464746,-12.31353 9.1834307,-7.25615 16.326087,-10.9942 15.985969,-15.61177 4.081522,-4.17781 8.503173,-3.07836 7.82293,-1.75908 v 0 l -2.721029,4.61758 -4.42164,16.05155 -8.843308,13.19303 1.700639,14.73223 17.686594,111.04146 z"
       id="path4559" />
    <path
       style="fill:#aa4400;stroke:#000000;stroke-width:0.447672px;stroke-linecap:butt;stroke-linejoin:miter;stroke-opacity:1"
       d="m 160.55211,250.74462 14.62547,14.51232 13.9452,12.97318 6.80256,5.93686 9.1834,4.83744 4.7618,4.39769 9.18342,2.41871 14.62547,3.51815 12.5847,3.73804 27.5503,13.19305 11.90442,8.35558 11.2242,12.31351 -0.34015,73.88108 -109.18074,0.87953 -6.12226,-56.07045 1.02038,-10.77432 -5.78219,-20.22935 -0.34012,-11.43396 1.3605,-8.3556 -4.08151,-22.20829 -5.44203,-12.75327 z"
       id="path4561" />
    <path
       style="fill:none;stroke:#000000;stroke-width:0.447672px;stroke-linecap:butt;stroke-linejoin:miter;stroke-opacity:1"
       d="m 29.943389,152.89619 -0.680253,5.27721 2.721016,4.1778 5.442031,3.29826 2.040761,-2.6386 -0.340123,-4.83746 -2.721022,-4.39766 -2.72101,-1.97896 h -2.380892 z"
       id="path4563" />
    <path
       style="fill:#28170b;stroke:#000000;stroke-width:0.447672px;stroke-linecap:butt;stroke-linejoin:miter;stroke-opacity:1"
       d="m 139.12413,104.74159 2.72101,11.43398 4.42167,7.47605 4.76177,6.15674 6.46242,7.0363 5.10189,1.31929 4.08153,0.43979 6.80254,-0.21989 6.80254,-2.41874 5.1019,-4.61755 3.74138,-4.83746 3.06117,-7.69593 1.70064,-7.47607 v 0 l 1.02038,-6.59651 v -9.894798 0 c 0,0 -1.38343,-2.412396 -2.3809,-3.51814 -1.14232,-1.266299 -4.08152,-3.51815 -4.08152,-3.51815 l -7.82291,-0.879535 h -11.2242 l -10.88406,1.539187 -12.24457,4.617568 -4.42167,4.177802 z"
       id="path6249"
       sodipodi:nodetypes="cccccccccccccccccsccccccc" />
    <path
       style="fill:#deaa87;stroke:#000000;stroke-width:0.447672px;stroke-linecap:butt;stroke-linejoin:miter;stroke-opacity:1"
       d="m 61.915304,49.550679 c 0,0 -9.308911,5.021253 -12.244551,8.355594 -12.941962,14.699654 -18.236104,32.026675 -21.42802,48.814277 -1.300855,6.84168 1.020403,20.66909 1.020403,20.66909 0,0 5.786304,8.39377 1.360511,10.33454 -2.098027,0.92002 -6.802543,-2.19882 -6.802543,-2.19882 0,0 -5.74202,2.76889 -6.802535,4.83744 -1.827837,3.56521 1.700633,11.2141 1.700633,11.2141 l 8.503172,14.51233 8.843302,12.75327 4.421649,1.97896 5.78216,0.43977 2.040756,-1.31928 5.442036,9.45501 3.401269,3.9579 2.721016,6.37662 3.061142,6.15677 6.802547,5.717 10.884048,6.15673 9.523545,3.95792 12.584696,3.51816 15.30573,2.63859 8.50316,-0.65965 16.32612,-2.19884 12.5847,-5.49712 5.44201,-3.07835 c 0,0 2.74147,-4.74958 4.42165,-7.0363 2.32937,-3.17025 5.86843,-5.96071 7.82292,-9.23514 1.04939,-1.75804 2.04075,-5.49709 2.04075,-5.49709 l 2.04078,-7.9158 c 0,0 2.54857,-6.69525 3.06114,-10.1147 0.30621,-2.04268 0,-6.15675 0,-6.15675 l -0.34012,-14.07257 1.02038,-7.25618 5.12104,-10.18308 -8.33175,3.47705 -8.43789,1.12573 c 0,0 -10.68666,-0.13419 -14.80662,-2.01519 -8.95227,-4.08704 -17.14452,-18.13665 -17.14452,-18.13665 0,0 -0.0247,8.38943 1.42399,12.31922 0.65924,1.78812 3.06113,4.83744 3.06113,4.83744 l 1.70066,5.27724 1.02037,4.83744 -3.40126,3.73802 c 0,0 -1.09774,-4.44161 -3.40128,-5.93687 -0.68357,-0.44373 -1.81049,-0.87335 -2.721,-0.65967 -3.67473,0.86244 -5.78217,6.59654 -5.78217,6.59654 0,0 -4.78756,-0.35498 -5.78215,-1.53919 -0.88065,-1.04856 1.02036,-3.51813 1.02036,-3.51813 0,0 -1.16732,-1.00521 -2.04075,-1.09943 -2.51301,-0.27118 -5.51435,0.49227 -7.14265,1.75908 -1.62022,1.26049 1.0138,4.263 -1.36053,4.83744 -1.35983,0.32899 -3.40126,-1.75907 -3.40126,-1.75907 l -1.0204,-4.61757 1.33089,-7.43961 -7.79297,6.04555 -12.468719,3.52657 -13.248061,-0.50378 -12.468714,-6.54938 -7.792961,-7.05313 -9.351553,-5.03797 -8.572253,-0.50379 -2.337895,-5.03798 16.365217,3.02276 -1.558591,-3.52654 c 0,0 -1.161094,-7.21986 -3.117185,-10.57976 -1.8047,-3.09983 -7.792955,-8.56453 -7.792955,-8.56453 0,0 -4.567533,-4.46654 -3.11719,-6.549347 C 48.900242,83.534051 61.915304,49.550679 61.915304,49.550679 Z"
       id="path6664"
       sodipodi:nodetypes="csscscscccccccccccccccccccssccsccccccscsccccsscscssscccccccccccccscsc" />
    <path
       style="fill:#ff2a2a;stroke:#000000;stroke-width:0.447672px;stroke-linecap:butt;stroke-linejoin:miter;stroke-opacity:1"
       d="m 97.288532,181.70099 v 0 c 0,0 8.471018,-9.99186 15.305708,-10.33453 4.75291,-0.23831 14.62545,2.19884 14.62545,2.19884 0,0 4.77066,-1.11844 8.8433,-0.87956 3.47837,0.20405 9.00949,3.09157 11.22418,4.83746 2.84863,2.24566 4.19167,4.13299 4.08154,7.03632 -0.14742,3.8862 -7.42446,6.56479 -12.92484,8.13569 -5.19463,1.4836 -17.00632,0.65965 -17.00632,0.65965 0,0 -11.24975,-1.53732 -15.64586,-3.73804 -3.92894,-1.9668 -8.503158,-7.91583 -8.503158,-7.91583 z"
       id="path6850"
       sodipodi:nodetypes="csscsssscsc" />
    <path
       style="fill:#782121;stroke:#000000;stroke-width:0.447672px;stroke-linecap:butt;stroke-linejoin:miter;stroke-opacity:1"
       d="m 113.27449,182.36065 c -1.64551,-1.23159 3.71337,-2.38601 6.12229,-2.85846 5.97102,-1.17118 18.70697,0.43976 18.70697,0.43976 v 0 0 0 c 0,0 5.99049,2.39809 4.42165,3.51812 0,0 -23.79601,2.98323 -29.25091,-1.09942 z"
       id="path8000"
       sodipodi:nodetypes="ssccccss" />
    <path
       style="fill:#ff9955;stroke:#000000;stroke-width:0.447672px;stroke-linecap:butt;stroke-linejoin:miter;stroke-opacity:1"
       d="m 113.95474,154.87515 9.52357,-1.97896 1.02036,-3.51813 -2.04075,-1.09943 -7.14265,1.75908 z"
       id="path8343" />
    <path
       style="fill:#ff9955;stroke:#000000;stroke-width:0.447672px;stroke-linecap:butt;stroke-linejoin:miter;stroke-opacity:1"
       d="m 129.26046,154.43538 5.78217,-6.59654 2.721,0.65967 c 0,0 5.26608,4.20478 3.40128,5.93687 -2.26687,2.10552 -11.90445,0 -11.90445,0 z"
       id="path8345"
       sodipodi:nodetypes="cccsc" />
    <path
       style="fill:#ff9955;stroke:#000000;stroke-width:0.447672px;stroke-linecap:butt;stroke-linejoin:miter;stroke-opacity:1"
       d="m 29.943389,152.89619 c -4.339939,1.50155 -0.224172,6.6297 2.040763,9.45501 1.144126,1.42719 5.442031,3.29826 5.442031,3.29826 0,0 3.020772,5.47479 5.78216,4.61758 5.753433,-1.78602 -3.919009,-7.43316 -7.142667,-10.99422 -2.068675,-2.28516 -2.511235,-7.62599 -6.122287,-6.37663 z"
       id="path10217"
       sodipodi:nodetypes="sscsss" />
    <path
       style="fill:#2b1100;stroke:#000000;stroke-width:0.447672px;stroke-linecap:butt;stroke-linejoin:miter;stroke-opacity:1"
       d="m -10.871839,297.14015 9.1834218,-7.91583 3.7413986,-1.75909 2.3808867,-7.25616 v -7.69594 l 12.2445729,-12.09363 1.360512,-6.37664 0.680249,-6.81642 -2.380888,-9.45501 -1.360507,-9.45499 2.040762,-8.3556 3.401268,-7.69595 1.700636,-9.89479 -0.680256,-3.07837 -12.5846947,-1.75906 -6.4624137,-3.95792 -2.72101507,-7.69596 2.04076177,-5.05733 2.7210128,7.03631 3.7413988,4.83744 4.7617791,-0.43977 5.101907,-2.19884 4.08152,-5.27724 10.203805,-9.45499 8.163047,5.49709 5.78216,0.43977 2.040756,-1.31928 8.843305,13.41291 2.721016,6.37662 3.061142,6.15677 6.462407,18.91003 2.040768,15.172 -0.680245,12.3135 -7.82293,1.75908 -8.503173,3.07836 -20.067491,19.78958 -16.326087,10.9942 -10.5439405,5.27723 -5.7821572,-1.09944 -3.0611421,-0.21985 z"
       id="path10670" />
    <path
       style="fill:#ffb380;stroke-width:0.447672"
       id="path11433"
       d="m 44.126801,84.092378 c -0.268541,0.615995 -0.814608,1.13436 -1.323676,1.671233 -0.515488,0.331544 -0.760977,0.771845 -0.997307,1.205536 -0.46935,0.370602 -0.463823,0.835574 -0.587626,1.282123 -0.241547,0.629676 -0.538076,1.249312 -0.786559,1.877869 -0.225966,0.385481 -0.138667,0.485369 0.182995,0.828162 0,0 6.936656,-3.073983 6.936656,-3.073983 v 0 c 0.35425,0.443441 0.201178,0.286505 0.354591,-0.06283 0.26135,-0.634198 0.521208,-1.268613 0.759842,-1.906528 0.140257,-0.430141 0.390196,-0.80961 0.692359,-1.201275 0.283476,-0.398012 0.629834,-0.757822 1.01992,-1.116437 0.53108,-0.571133 0.941885,-1.182964 1.27271,-1.814064 0,0 -7.523901,2.310181 -7.523901,2.310181 z" />
    <path
       style="fill:#deaa87;stroke-width:0.447672"
       id="path11468"
       d="m 45.487307,83.212843 c -0.391093,0.693136 -0.698374,1.409693 -1.166777,2.083874 -0.340169,0.568022 -0.898389,1.089161 -1.590394,1.502941 -0.372039,0.459744 -0.886459,0.850507 -1.349208,1.269158 -0.413843,0.426041 -0.481899,0.942765 -0.797314,1.392248 -0.277247,0.407882 -0.343427,0.85004 -0.383927,1.289394 -0.250655,0.399086 -0.231871,0.835051 -0.364941,1.251398 -0.09406,0.47898 -0.301897,0.924508 -0.72427,1.324084 -0.355706,0.376221 -0.796996,0.700223 -1.051445,1.116592 -0.313381,0.427963 -0.668833,0.842267 -0.946694,1.284067 -0.159835,0.290951 -0.222093,0.604876 -0.410765,0.889719 -0.07972,0.120374 -0.199387,0.228262 -0.285675,0.346725 -0.207176,0.257226 -0.171511,0.553937 -0.269845,0.82627 -0.04017,0.111268 -0.126287,0.213558 -0.179885,0.322436 -0.02172,0.06109 -0.02893,0.125059 -0.06505,0.183224 -0.02851,0.04599 -0.08941,0.08076 -0.125828,0.124299 -0.135136,0.161665 -0.188384,0.336358 -0.244225,0.514268 0,0 7.527718,-2.31432 7.527718,-2.31432 v 0 c 0.157427,-0.270649 0.352036,-0.529951 0.437995,-0.816228 0.149808,-0.362473 0.195285,-0.744282 0.490857,-1.077433 0.270589,-0.402557 0.397273,-0.837238 0.680999,-1.236543 0.316741,-0.424084 0.646968,-0.842757 0.970246,-1.26469 0.354596,-0.364516 0.773588,-0.702656 1.054511,-1.096039 0.318154,-0.471946 0.477938,-0.967544 0.600703,-1.475106 0.108234,-0.436161 0.253052,-0.866483 0.352791,-1.302316 0.07507,-0.400675 0.227118,-0.78571 0.469288,-1.158899 0.200862,-0.443692 0.428329,-0.889285 0.892422,-1.250824 0.4755,-0.397632 0.830769,-0.849984 1.363367,-1.218489 0.596411,-0.51178 1.13012,-1.04435 1.436346,-1.660215 0.411833,-0.717252 0.784867,-1.443862 1.202921,-2.159775 0,0 -7.523903,2.31018 -7.523903,2.31018 z" />
    <path
       style="fill:#deaa87;stroke-width:0.447672"
       id="path11470"
       d="m 57.862913,51.83714 c 0.08638,0.834603 0.01438,1.670102 -0.137779,2.4993 -0.336206,1.078403 -0.478668,2.181047 -0.817679,3.25751 -0.33703,1.181044 -0.756108,2.351375 -1.144661,3.525601 -0.435774,1.214658 -0.912103,2.420895 -1.467585,3.614911 -0.301846,0.444543 -0.374261,0.947813 -0.720856,1.37976 -0.05922,0.07383 -0.134854,0.14166 -0.20225,0.21248 -0.06844,0.08782 -0.136824,0.17563 -0.205217,0.263442 -0.587647,1.009108 -1.36349,1.966786 -1.937188,2.979139 -0.550088,0.920611 -0.910102,1.871876 -1.26664,2.829013 -0.527365,1.198512 -0.883106,2.425086 -1.371843,3.629333 -0.286996,1.018612 -0.854729,1.988277 -1.333901,2.971883 -0.254978,0.556612 -0.814313,1.015638 -1.194938,1.531841 -0.06322,0.08575 -0.569177,0.902618 -0.606179,0.962046 -0.603207,1.0843 -1.09582,2.196023 -1.53954,3.312057 0,0 7.410035,-2.296171 7.410035,-2.296171 v 0 c 0.401955,-1.093517 0.837674,-2.189893 1.546817,-3.219658 0.597915,-0.852201 1.374713,-1.652682 1.804017,-2.550852 0.493048,-0.98981 0.935545,-1.987945 1.289783,-3.002979 0.394242,-1.21017 0.795064,-2.419757 1.342832,-3.605996 0.408887,-0.931895 0.809656,-1.866029 1.3152,-2.778558 0.633704,-1.005532 1.332805,-1.994451 2.085605,-2.965088 0.478079,-0.609418 0.683679,-1.278981 0.992495,-1.92951 0.479215,-1.197513 0.888675,-2.405722 1.348113,-3.606397 0.443114,-1.184117 0.855849,-2.372636 1.210153,-3.569337 0.288101,-1.091874 0.464168,-2.195778 0.774119,-3.285925 0.144232,-0.866246 0.241218,-1.732117 0.25165,-2.603468 0,0 -7.424559,2.445623 -7.424563,2.445623 z" />
    <path
       style="fill:#2b1100;stroke:#000000;stroke-width:0.447672px;stroke-linecap:butt;stroke-linejoin:miter;stroke-opacity:1"
       d="m 180.61964,180.38172 v 13.41291 l -4.7618,11.87374 5.10192,10.77432 -3.7414,7.03627 -3.40128,6.81642 -1.02037,6.37664 9.52357,9.01525 3.40127,7.25616 -10.88408,1.97899 -14.28536,-4.1778 -1.36045,-21.76855 1.7006,-12.53338 13.07914,-16.89561 3.24696,-12.78872 z"
       id="path11676"
       sodipodi:nodetypes="cccccccccccccccc" />
    <rect
       style="fill:#ffffff;stroke-width:0.264583"
       id="rect12266"
       width="36.200867"
       height="274.52319"
       x="263.05957"
       y="10.860258" />
    <rect
       style="fill:#ffffff;stroke-width:0.264583"
       id="rect12370"
       width="0"
       height="38.455128"
       x="238.32233"
       y="177.98756" />
    <rect
       style="fill:#ffffff;stroke-width:0.264583"
       id="rect12372"
       width="0"
       height="7.2401729"
       x="238.3223"
       y="184.62439" />
    <path
       style="fill:#ffffff;stroke-width:0.264583"
       id="path12440"
       d="m 209.40759,4.4207826 c 0.20664,1.5198908 0.39535,3.0406324 0.50898,4.5705241 0.0703,1.3093893 0.39046,2.5874283 0.5495,3.8884423 0.0607,1.100049 0.21693,2.199947 0.61751,3.230748 0.485,0.985731 0.59318,2.062342 0.67665,3.14098 -0.0172,1.305586 0.15011,2.577669 0.36063,3.861679 0.23398,1.462026 0.26518,2.946103 0.2966,4.423386 0.0211,1.337783 0.0169,2.675789 0.0148,4.013687 0.10665,1.179419 -0.3744,2.222002 -0.74628,3.302944 -0.56322,1.227106 -0.92263,2.54041 -1.22474,3.853804 -0.30421,1.399935 -0.39217,2.830481 -0.43738,4.258199 -0.0264,1.228172 -0.0188,2.456749 -0.0157,3.685109 0.001,1.552715 0.0154,3.105372 0.0221,4.658066 0.008,2.412558 0.01,4.825111 0.003,7.237675 -0.1173,1.652849 -0.37925,3.289588 -0.5184,4.940522 0.006,1.24125 -0.29791,2.44222 -0.48374,3.661775 -0.17965,1.257911 -0.19886,2.529353 -0.2156,3.797408 -0.0564,2.320777 0.0428,4.632317 0.20041,6.946773 0.20938,2.920294 0.32219,5.846183 0.38022,8.773041 0.0327,1.897391 0.0233,3.795077 0.0298,5.692629 -0.002,1.940592 0.003,3.881171 -0.002,5.821757 -0.008,1.605722 -0.007,3.211449 -0.009,4.817189 0.0259,1.61906 0.32087,3.22107 0.45106,4.83603 0.13323,2.03753 0.14709,4.08018 0.16172,6.12123 0.0127,2.20797 0.007,4.41597 0.005,6.62395 -0.005,1.67464 -0.0124,3.34926 -0.0165,5.0239 0.009,1.86021 0.0122,3.72047 0.0106,5.5807 0.004,1.87685 -10e-4,3.7537 -0.007,5.63054 -5.3e-4,1.49133 -0.004,2.98268 -0.001,4.474 -0.088,1.82949 0.10532,3.63724 0.29096,5.45313 0.19805,2.04692 0.26281,4.10302 0.29876,6.15812 0.0284,2.07617 0.0334,4.15269 0.0306,6.22904 -0.003,2.09689 -0.007,4.19377 -0.008,6.29067 -0.0118,2.15626 0.25925,4.30555 0.62427,6.42723 0.28652,1.45667 0.36175,2.93687 0.72018,4.37759 0.0378,1.32311 -0.34093,2.63551 -0.52027,3.94911 -0.0498,1.53218 -0.40205,2.99952 -0.78232,4.4741 -0.52514,2.00224 -0.54298,4.08314 -0.59224,6.13852 -0.0585,3.19158 -0.0375,6.38394 -0.0349,9.57589 0.003,3.54379 0.003,7.08757 0.0115,10.63135 7.9e-4,2.85277 -0.0213,5.70546 -0.0258,8.55821 -0.002,2.37751 0.008,4.75502 0.002,7.13255 -0.006,2.41425 0.003,4.8285 0.003,7.24276 -0.009,2.53514 0.003,5.07028 0.003,7.60542 0.022,2.34796 -0.0814,4.69673 0.0733,7.04077 0.20604,2.26525 0.36197,4.53378 0.45131,6.80656 0.0736,2.18229 0.0779,4.366 0.0747,6.54927 -0.0114,1.78186 -0.0102,3.56373 -0.0121,5.34562 -0.21797,1.94167 -0.39346,3.88421 -0.49268,5.83602 -0.079,2.01295 -0.1013,4.02769 -0.11619,6.04199 -0.0103,1.3978 -0.005,2.79559 -0.003,4.19336 0.0586,1.66833 -0.19892,3.32285 -0.36322,4.97914 -0.0809,0.80436 -0.129,1.61118 -0.17402,2.41811 0,0 3.52067,-1.76943 3.52067,-1.76943 v 0 c 0.0439,-0.79984 0.0908,-1.59962 0.16984,-2.39697 0.1647,-1.67042 0.42645,-3.3384 0.36007,-5.02139 -2.2e-4,-1.39579 -0.001,-2.79154 -0.004,-4.18732 0.003,-2.00578 0.0118,-4.01233 0.1076,-6.01623 0.10878,-1.96009 0.32024,-3.90771 0.49791,-5.86174 5.3e-4,-1.77898 0.006,-3.55795 -0.007,-5.33691 -0.009,-2.19035 0.01,-4.38177 -0.0691,-6.57102 -0.11162,-2.26998 -0.28159,-4.53593 -0.47529,-6.80032 -0.11754,-2.33629 -0.0428,-4.67778 -0.071,-7.0165 4e-5,-2.53603 0.0113,-5.07205 0.003,-7.60807 -2e-5,-2.41536 0.009,-4.83071 0.003,-7.24605 -0.005,-2.3783 0.004,-4.75659 0.002,-7.13487 -0.005,-2.84362 -0.0272,-5.68716 -0.0283,-8.53079 0.006,-3.54545 7.9e-4,-7.09088 -0.002,-10.63633 2.6e-4,-3.19328 -0.002,-6.38698 0.0677,-9.57966 0.0706,-2.03903 0.12918,-4.09854 0.67154,-6.07922 0.39033,-1.48576 0.67641,-2.97953 0.76681,-4.51711 0.19477,-1.35458 0.61693,-2.71794 0.4633,-4.09003 -0.35576,-1.42647 -0.43573,-2.89652 -0.73856,-4.33548 -0.36819,-2.101 -0.61623,-4.23136 -0.59262,-6.3676 8e-4,-2.09543 -7.9e-4,-4.19087 -7.9e-4,-6.28631 -10e-4,-2.08189 0.0144,-4.16387 -0.0171,-6.24563 -0.0533,-2.06288 -0.13335,-4.12593 -0.32161,-6.18159 -0.18346,-1.80656 -0.34124,-3.6079 -0.25549,-5.42653 0.003,-1.49089 -7.9e-4,-2.98179 -0.001,-4.47268 -0.006,-1.8745 -0.0113,-3.74899 -0.007,-5.6235 -0.002,-1.86387 0.001,-3.72776 0.011,-5.5916 -0.003,-1.66977 -0.01,-3.33954 -0.0118,-5.00931 5.3e-4,-2.2095 0.002,-4.41902 -0.002,-6.62852 -0.0129,-2.05063 -0.0398,-4.10218 -0.16839,-6.14943 -0.12312,-1.60774 -0.4162,-3.20212 -0.4234,-4.81556 -0.002,-1.603045 -4e-5,-3.20609 -0.007,-4.809131 -0.003,-1.941364 0.005,-3.882702 0.005,-5.824069 0.005,-1.89634 -0.009,-3.792868 -0.0574,-5.688656 -0.0788,-2.927461 -0.21363,-5.852874 -0.41086,-8.774916 -0.1379,-2.316322 -0.19718,-4.630375 -0.12426,-6.950745 0.0237,-1.253296 0.0583,-2.510062 0.24694,-3.751598 0.19695,-1.224256 0.46423,-2.437696 0.46686,-3.684482 0.14185,-1.652841 0.39547,-3.294938 0.46971,-4.953296 -0.006,-2.41355 -0.004,-4.827093 0.002,-7.240643 0.005,-1.558499 0.0185,-3.117001 0.0103,-4.675516 -0.003,-1.223639 -0.0107,-2.447543 0.0192,-3.670932 0.0496,-1.403368 0.14401,-2.809563 0.46155,-4.182078 0.32165,-1.305499 0.71982,-2.593467 1.26129,-3.825899 0.39681,-1.109845 0.77455,-2.216467 0.68133,-3.419342 -1.7e-4,-1.339043 -2.6e-4,-2.678229 -0.0296,-4.017026 -0.0395,-1.495019 -0.0716,-2.998016 -0.3122,-4.477073 -0.20962,-1.273299 -0.34111,-2.539337 -0.34718,-3.832056 -0.0938,-1.115436 -0.21882,-2.227269 -0.71741,-3.247369 -0.38004,-1.005529 -0.50964,-2.074379 -0.58248,-3.141446 -0.16837,-1.2921969 -0.48243,-2.5642318 -0.54867,-3.8676061 -0.12442,-1.5214639 -0.3386,-3.0318921 -0.47903,-4.5513362 0,0 -3.52817,1.7976979 -3.52817,1.7976979 z" />
    <path
       style="fill:#ffffff;stroke-width:0.264583"
       id="path12442"
       d="m 208.20089,2.0073919 c 0.0294,1.9680512 0.021,3.9364708 0.0151,5.904671 -0.005,1.446349 -0.009,2.8927021 -0.0106,4.3390591 -0.003,1.301214 0.002,2.602414 0.002,3.903626 -7.9e-4,1.307098 -0.002,2.614195 -0.003,3.921294 -0.003,1.482217 0.009,2.964396 0.01,4.446608 0.004,1.809158 0.002,3.618298 -0.003,5.427458 -0.008,1.548387 -0.001,3.096752 0.003,4.645139 -7.9e-4,1.648679 -0.006,3.29733 -0.001,4.946007 -0.0206,1.710351 0.27739,3.403846 0.44214,5.102688 0.11727,1.271317 0.1399,2.548271 0.15247,3.82406 0.007,1.202938 0.004,2.405911 0.002,3.608863 -0.007,1.432867 0.005,2.865681 0.011,4.298519 0.25434,2.739059 0.42083,5.482447 0.51845,8.23133 0.0761,2.510555 0.0862,5.022384 0.093,7.533878 -0.0335,3.085645 0.20182,6.169004 0.47118,9.241168 0.37505,3.874561 0.83413,7.738539 1.11886,11.621778 0.11569,2.894333 0.30415,5.781043 0.51473,8.669942 0.20323,2.72008 0.26054,5.4474 0.30159,8.17375 0.0389,3.1464 0.0276,6.29307 0.0183,9.4396 -0.006,2.386 -0.0138,4.77198 -0.0141,7.15799 0.004,2.11395 -0.006,4.22788 -0.005,6.34183 -0.23015,2.22695 -0.3956,4.45538 -0.48699,6.69225 -0.078,2.25007 -0.39349,4.48272 -0.56091,6.72796 -0.14475,1.87921 -0.15217,3.76434 -0.1592,5.64787 0.0315,2.15768 -0.003,4.3048 -0.17191,6.45576 -0.22691,2.08513 -0.84417,4.09195 -1.27275,6.13781 -0.31965,1.76604 -0.34575,3.56453 -0.36484,5.3536 -0.0134,2.23449 -7.9e-4,4.46906 -0.004,6.7036 0.002,1.7211 -0.004,3.44219 -0.007,5.16328 -0.10344,1.2233 0.0709,2.39629 0.28525,3.59229 0.39117,1.91195 0.60958,3.84324 0.75931,5.78813 0.13457,1.91865 0.16359,3.84234 0.17593,5.76497 -0.0125,2.62412 -8e-4,5.23843 0.19142,7.85581 0.21185,2.41098 0.32507,4.82794 0.37952,7.24708 -0.0168,2.52268 0.0601,5.0328 0.23311,7.54869 0.41377,3.72195 0.69671,7.45547 0.88101,11.19529 0.10162,2.24812 0.12373,4.49868 0.12461,6.74876 -0.12583,1.82515 -0.69933,3.57405 -1.22369,5.31493 -0.67502,2.60986 -1.22882,5.26191 -1.73737,7.91155 -0.54795,2.95677 -0.57951,5.97124 -0.62184,8.96794 -0.0426,3.03158 -0.0406,6.0635 -0.0323,9.09529 0.0111,3.13277 0.0126,6.26559 0.01,9.39839 -0.0662,2.30476 0.25494,4.5937 0.4261,6.88724 0.12564,1.84184 0.14462,3.6884 0.15397,5.53376 0.006,1.51344 0.002,3.02691 -0.002,4.54036 0.008,0.93935 -0.007,2.14801 0.80065,2.78815 3.82199,-2.25624 3.33286,-0.79635 3.80589,-2.61718 0,0 -3.59392,1.67979 -3.59392,1.67979 v 0 c -0.68294,1.43888 -0.27511,0.396 3.11789,-1.25056 -0.70927,-0.005 -0.58774,-1.97517 -0.61557,-2.39069 -7.9e-4,-1.51284 0.002,-3.02573 -0.009,-4.53851 -0.0212,-1.8515 -0.0421,-3.70477 -0.17596,-5.55225 -0.17575,-2.27873 -0.51751,-4.55054 -0.4502,-6.84181 -0.006,-3.1333 -0.008,-6.2666 -0.008,-9.3999 -10e-4,-3.02628 -0.0185,-6.05268 0.0163,-9.07883 0.0631,-2.98199 0.12272,-5.97897 0.67522,-8.91975 0.51136,-2.64382 1.06652,-5.28913 1.77578,-7.88615 0.53134,-1.77534 1.13107,-3.55888 1.19006,-5.42774 -0.0189,-2.24764 -0.0608,-4.4952 -0.18393,-6.73996 -0.21794,-3.73794 -0.53433,-7.46873 -0.88533,-11.1964 -0.13642,-2.51641 -0.18913,-5.0307 -0.1967,-7.55097 -0.0606,-2.42314 -0.17049,-4.84387 -0.39966,-7.25784 -0.18488,-2.61388 -0.18873,-5.22719 -0.15271,-7.84702 -0.0131,-1.92956 -0.0361,-3.85976 -0.20178,-5.78374 -0.16128,-1.9594 -0.36602,-3.91073 -0.73541,-5.84313 -0.20482,-1.17348 -0.34749,-2.32887 -0.26214,-3.52661 -0.005,-1.717 -0.0143,-3.43399 -0.0181,-5.151 -0.0106,-2.23311 -0.015,-4.46631 0.0105,-6.69935 0.0366,-1.76933 0.0686,-3.5486 0.40895,-5.29173 0.43107,-2.052 1.02506,-4.0732 1.22226,-6.16877 0.17182,-2.16188 0.2086,-4.32071 0.17531,-6.48936 0.0159,-1.87534 0.0391,-3.75171 0.16959,-5.62334 0.16522,-2.24485 0.48532,-4.47764 0.53724,-6.72939 0.10377,-2.24538 0.31379,-4.47931 0.50098,-6.71839 0.001,-2.11254 -0.008,-4.22506 -0.004,-6.3376 0.001,-2.38239 -0.004,-4.76477 -0.007,-7.14716 -0.007,-3.14787 -0.0107,-6.29574 -0.0214,-9.44359 -0.0264,-2.73401 -0.10729,-5.46734 -0.31483,-8.19437 -0.22435,-2.886612 -0.35933,-5.774711 -0.52785,-8.664345 -0.32112,-3.876768 -0.79558,-7.737507 -1.14244,-11.61166 -0.24096,-3.07466 -0.44851,-6.15796 -0.39876,-9.243721 -0.009,-2.510087 -0.038,-5.020252 -0.13075,-7.528857 -0.0999,-2.750664 -0.25958,-5.496411 -0.46915,-8.240776 0.007,-1.437227 0.0187,-2.874422 0.0157,-4.311681 0.001,-1.204357 0.005,-2.408748 -0.005,-3.613081 -0.0166,-1.285053 -0.0473,-2.571205 -0.1776,-3.850712 -0.17678,-1.683999 -0.47683,-3.364973 -0.43232,-5.063178 0.004,-1.648208 -5.3e-4,-3.296388 -0.001,-4.944596 0.004,-1.549361 0.0109,-3.098702 0.003,-4.648063 -0.005,-1.80815 -0.007,-3.616283 -0.003,-5.424433 0.001,-1.485493 0.0128,-2.970953 0.01,-4.456451 -8e-4,-1.306139 -0.002,-2.612277 -0.003,-3.918416 1e-4,-1.30205 0.006,-2.604088 0.002,-3.90614 -0.002,-1.4427519 -0.005,-2.8855002 -0.0106,-4.3282437 -0.006,-1.9733316 -0.0141,-3.9468773 0.0151,-5.92006216 0,0 -3.52817,1.79769776 -3.52817,1.79769776 z" />
    <path
       style="fill:#ffffff;stroke-width:0.264583"
       id="path12444"
       d="m 211.22018,113.09423 c 0.11487,3.05256 -0.0826,6.0989 -0.22576,9.14663 -0.21231,3.95603 -0.78352,7.874 -1.35391,11.7899 -0.3991,3.14771 -0.63762,6.31222 -0.77728,9.48116 0.0194,1.7308 -0.12734,3.43797 -0.34176,5.15264 -0.22744,1.64468 -0.21955,3.30742 -0.3636,4.95848 -0.33887,3.24316 -0.38511,6.50617 -0.4426,9.76346 -0.045,3.27771 -0.0828,6.55567 -0.0982,9.83368 -0.0669,0.9003 0.0493,1.79041 0.16959,2.67918 0,0 3.48686,-1.83681 3.48686,-1.83681 v 0 c -0.12014,-0.86737 -0.23108,-1.73596 -0.17645,-2.61508 -0.009,-3.26519 -0.0232,-6.53058 0.039,-9.79543 0.072,-3.26333 0.16091,-6.53083 0.52898,-9.77701 0.14943,-1.64967 0.15656,-3.31031 0.38376,-4.95379 0.2075,-1.72036 0.33501,-3.43605 0.30582,-5.17108 0.10837,-3.14869 0.31795,-6.29534 0.74297,-9.41881 0.56334,-3.92459 1.10986,-7.85269 1.32492,-11.81577 0.16177,-3.07089 0.35646,-6.13949 0.32069,-9.21645 0,0 -3.52307,1.7951 -3.52307,1.7951 z" />
  </g>
</svg>
